<mxfile host="app.diagrams.net" modified="2023-06-24T23:46:11.759Z" agent="Mozilla/5.0 (Windows NT 10.0; Win64; x64) AppleWebKit/537.36 (KHTML, like Gecko) Chrome/114.0.0.0 Safari/537.36 Edg/114.0.1823.58" version="21.2.3" etag="O4wuPvNZk8VqzHGJf-5w" type="github">
  <diagram name="第 1 页" id="fqJ0pLppzwENxU5OCnf3">
    <mxGraphModel>
      <root>
        <mxCell id="0" />
        <mxCell id="1" parent="0" />
      </root>
    </mxGraphModel>
  </diagram>
</mxfile>
